<?xml version="1.0" standalone="no"?>
<!DOCTYPE svg PUBLIC "-//W3C//DTD SVG 20010904//EN"
 "http://www.w3.org/TR/2001/REC-SVG-20010904/DTD/svg10.dtd">
<svg version="1.0" xmlns="http://www.w3.org/2000/svg"
 width="626.000000pt" height="626.000000pt" viewBox="0 0 626.000000 626.000000"
 preserveAspectRatio="xMidYMid meet">
<metadata>
Created by potrace 1.14, written by Peter Selinger 2001-2017
</metadata>
<g transform="translate(0.000000,626.000000) scale(0.100000,-0.100000)"
fill="#000000" stroke="none">
<path d="M5891 6206 c-40 -24 -77 -49 -81 -56 -4 -6 -11 -12 -16 -12 -14 -1
-38 -11 -44 -18 -3 -3 -50 -33 -105 -65 -108 -64 -163 -99 -182 -115 -7 -5
-15 -10 -18 -10 -3 0 -31 -16 -61 -35 -30 -19 -57 -35 -61 -35 -3 0 -14 -7
-24 -16 -10 -9 -31 -23 -48 -32 -31 -17 -267 -161 -319 -194 -15 -10 -36 -22
-47 -28 -11 -5 -55 -32 -98 -60 -43 -27 -81 -50 -83 -50 -3 0 -10 -5 -17 -10
-7 -6 -66 -43 -132 -84 -366 -223 -1033 -631 -1055 -645 -32 -20 -45 -28 -117
-70 -32 -19 -59 -38 -61 -43 -2 -4 -8 -8 -13 -8 -5 0 -71 -38 -145 -85 -75
-47 -139 -85 -142 -85 -3 0 -20 -11 -38 -25 -18 -14 -35 -25 -37 -25 -3 0 -34
-18 -68 -40 -35 -22 -80 -49 -99 -60 -19 -11 -48 -29 -65 -40 -16 -11 -37 -23
-45 -27 -8 -4 -75 -45 -150 -91 -74 -47 -148 -92 -165 -102 -27 -15 -213 -129
-350 -214 -28 -17 -59 -36 -70 -43 -11 -6 -103 -63 -204 -125 -101 -62 -189
-115 -195 -117 -5 -2 -15 -8 -21 -13 -16 -14 -135 -88 -141 -88 -3 0 -17 -8
-32 -19 -15 -10 -55 -36 -89 -57 -35 -21 -63 -41 -63 -44 0 -3 39 -16 88 -29
48 -12 94 -25 102 -28 8 -3 20 -7 25 -8 29 -7 104 -28 130 -36 35 -11 188 -55
260 -74 28 -8 109 -30 180 -50 173 -48 238 -66 250 -69 48 -13 71 -20 80 -25
6 -3 19 -7 30 -9 11 -1 51 -12 89 -23 38 -11 76 -22 85 -24 9 -2 75 -20 146
-41 144 -40 137 -38 182 -49 40 -9 40 -9 -62 -120 -44 -48 -88 -97 -98 -109
-17 -19 -139 -154 -196 -215 -13 -14 -55 -62 -95 -105 -39 -43 -84 -94 -101
-112 -16 -17 -64 -69 -105 -115 -41 -46 -88 -97 -104 -114 -15 -16 -56 -61
-90 -99 -33 -37 -74 -83 -91 -101 -16 -18 -64 -69 -105 -115 -41 -45 -86 -95
-100 -110 -24 -26 -150 -164 -199 -219 -13 -14 -47 -51 -75 -82 -83 -91 -219
-241 -241 -265 -111 -123 -165 -182 -190 -210 -16 -17 -61 -67 -100 -109 -38
-43 -81 -90 -95 -105 -14 -15 -54 -60 -90 -100 -36 -39 -81 -89 -100 -110 -29
-31 -145 -159 -200 -220 -8 -10 -35 -39 -60 -66 -25 -26 -38 -43 -29 -36 9 6
19 9 22 5 4 -3 7 -1 7 5 0 7 5 12 11 12 5 0 37 18 69 40 32 22 63 40 69 40 5
0 11 4 13 8 2 4 23 19 48 33 77 43 95 54 100 60 3 3 41 27 85 53 44 26 100 60
125 76 25 16 79 49 120 74 41 25 140 86 220 135 80 50 173 107 208 128 101 61
98 59 192 119 127 81 383 234 391 234 5 0 9 4 9 9 0 5 10 13 22 17 12 3 26 11
32 15 17 15 397 249 487 301 13 7 28 17 33 21 32 23 189 117 197 117 5 0 9 4
9 9 0 5 8 11 18 15 17 5 23 9 97 57 22 15 56 36 75 47 19 10 249 151 510 312
261 161 502 309 535 329 33 19 62 38 65 41 3 3 17 12 33 20 22 12 165 100 383
235 17 11 58 35 90 54 33 19 70 42 84 52 14 9 112 70 217 135 106 65 192 119
190 120 -3 3 -344 102 -517 150 -69 19 -132 38 -140 41 -8 3 -19 7 -25 8 -5 2
-98 28 -205 60 -107 31 -202 58 -210 60 -41 9 -240 68 -272 80 -21 8 -38 13
-38 10 0 -2 -18 2 -40 10 -22 8 -44 15 -48 15 -14 1 -118 32 -144 44 l-27 11
51 55 c28 30 83 90 122 134 39 43 82 90 96 105 21 23 83 91 195 215 121 134
185 205 210 231 17 18 59 65 95 105 36 39 83 91 105 115 22 23 68 73 101 111
34 38 77 85 95 105 19 20 63 68 99 108 36 40 79 87 95 105 17 18 62 68 101
112 40 43 85 93 100 110 16 17 55 59 87 95 32 35 75 82 95 104 20 23 75 83
122 135 47 52 92 101 100 110 8 8 49 54 90 100 41 46 84 93 95 105 11 11 43
45 70 75 95 105 213 235 237 261 12 14 52 58 88 99 36 40 76 83 90 96 35 33
26 30 -59 -20z"/>
</g>
</svg>
