<svg xmlns="http://www.w3.org/2000/svg" fill="none" viewBox="0 0 20 20">
  <g fill="currentColor" clip-path="url(#a)">
    <path
      d="M9.99996 2.5c-2.91667 0-5.83333 5.275-5.83333 9.1667 0 3.225 2.60833 5.8333 5.83333 5.8333 3.22504 0 5.83334-2.6083 5.83334-5.8333 0-3.8917-2.9167-9.1667-5.83334-9.1667Zm0 13.3333c-2.3 0-4.16667-1.8666-4.16667-4.1666 0-3.40837 2.55834-7.50003 4.16667-7.50003 1.60834 0 4.16664 4.09166 4.16664 7.50003 0 2.3-1.8666 4.1666-4.16664 4.1666Z" />
    <path
      d="M10.8333 13.3333c-.4833 0-2.50001-.0666-2.50001-2.5 0-.4583-.375-.8333-.83333-.8333s-.83333.375-.83333.8333c0 2.5 1.65833 4.1667 4.16667 4.1667.4583 0 .8333-.375.8333-.8333 0-.4584-.375-.8334-.8333-.8334Z" />
  </g>
  <defs>
    <clipPath id="a">
      <path fill="currentColor" d="M0 0h20v20H0z" />
    </clipPath>
  </defs>
</svg>