<svg xmlns="http://www.w3.org/2000/svg" fill="none" viewBox="0 0 20 20">
  <g fill="currentColor" clip-path="url(#a)">
    <path
      d="M3.74996 10c1.15059 0 2.08333-.93273 2.08333-2.08332 0-1.1506-.93274-2.08334-2.08333-2.08334-1.15059 0-2.08333.93274-2.08333 2.08334C1.66663 9.06727 2.59937 10 3.74996 10ZM7.49996 6.66667c1.15059 0 2.08333-.93274 2.08333-2.08334C9.58329 3.43274 8.65055 2.5 7.49996 2.5c-1.15059 0-2.08333.93274-2.08333 2.08333 0 1.1506.93274 2.08334 2.08333 2.08334ZM12.5 6.66667c1.1506 0 2.0833-.93274 2.0833-2.08334C14.5833 3.43274 13.6506 2.5 12.5 2.5c-1.1506 0-2.0834.93274-2.0834 2.08333 0 1.1506.9328 2.08334 2.0834 2.08334ZM16.25 10c1.1506 0 2.0833-.93273 2.0833-2.08332 0-1.1506-.9327-2.08334-2.0833-2.08334-1.1506 0-2.0834.93274-2.0834 2.08334C14.1666 9.06727 15.0994 10 16.25 10ZM14.45 12.3833c-.725-.85-1.3334-1.575-2.0667-2.42497-.3833-.45-.875-.9-1.4583-1.1-.0917-.03333-.1834-.05833-.275-.075C10.4416 8.75 10.2166 8.75 9.99996 8.75c-.21667 0-.44167 0-.65834.04167-.09166.01666-.18333.04166-.275.075-.58333.2-1.06666.65-1.45833 1.1-.725.85003-1.33333 1.57503-2.06667 2.42503-1.09166 1.0916-2.43333 2.3-2.18333 3.9916.24167.85.85 1.6917 1.94167 1.9334.60833.125 2.55-.3667 4.61666-.3667h.14998c2.0667 0 4.0084.4833 4.6167.3667 1.0917-.2417 1.7-1.0917 1.9417-1.9334.2583-1.7-1.0834-2.9083-2.175-4Z" />
  </g>
  <defs>
    <clipPath id="a">
      <path fill="currentColor" d="M0 0h20v20H0z" />
    </clipPath>
  </defs>
</svg>